/* XPM */
static char *_bc8b599e61c4b3ebb785368ed690621EH2iwkYCxM2myH6v[] = {
/* columns rows colors chars-per-pixel */
"64 64 11 1 ",
"  c #755338",
". c black",
"X c #0C0E19",
"o c #1D235D",
"O c #9E2E46",
"+ c #33418A",
"@ c #425B9E",
"# c #4D8AB3",
"$ c #65B1B8",
"s c #503625",
"% c white",
/* pixels */
"            s                                               s   ",
"            s                                               s   ",
"            s                                               s   ",
"            s                                               s   ",
"ssss sss    ssssssssss ss    ssssssssssss ss    ssssssssssss sss",
"ssss sss    ssssssssss ss    ssssssssssss ss    ssssssssssss sss",
"ssss sss    ssssssssss ss    ssssssssssss ss    ssssssssssss sss",
"ssss sss    ssssssssss ss    ssssssssssss ss    ssssssssssss sss",
"                                                                ",
"                                                                ",
"                           oooooooooooooo                       ",
"                          oooooooooooooooo                      ",
"                         oo##############oo                     ",
"                        oo################oo                    ",
"                        o@@##############@@o                    ",
"                       o@@################@@o                   ",
"     s               s o@##################@o            s      ",
"     s               s o####################o            s      ",
"     s               so@$$$$$$$$$$$$$$$$$$$$@o           s      ",
"     s               so$$$$$$$$$$$$$$$$$$$$$$o           s      ",
"ssss sss    sssssssssso$$$$$$$$$$$$$$$$$$$$$$os ssssssssssss sss",
"ssss sss    ssssssssso@$$$$$$$$$$$$$$$$$$$$$$@o ssssssssssss sss",
"ssss sss    ssssssssso@$$$$%.$$$$$$$$$$%.$$$$@o ssssssssssss sss",
"ssss sss    ssssssssso@$$$$%.$$$$$$$$$$%.$$$$@o ssssssssssss sss",
" s                   o#$$$$..$$$$$$$$$$..$$$$#o                 ",
" s                   o#$$$$..$$$$$$$$$$..$$$$#o                 ",
" s                   o#$$$$$$$$$$$$$$$$$$$$$$#o                 ",
" s                   o#++$$$$$$$$$$$$$$$$++$$#o                 ",
"                     o#++$$$$$$$$$$$$$$$$++$$#o                 ",
"                     o#$$++++++++++++++++$$$$#o                 ",
"                     o#$$++++++++++++++++$$$$#o                 ",
"                     o#$$++++++++++++++++$$$$#o                 ",
"                    Xo@###+OOOOOOOOOOOO+#####@oX                ",
"                    Xo@###+OOOOOOOOOOOO+#####@oX                ",
"                    Xo@###+OOOOOOOOOOOO+#####@oX                ",
"                   Xo@@######################@@oX               ",
"sss   sssssssssssssXo@@######################@@oXss   ssssssssss",
"sss   sssssssssssssXo@@######################@@oXss   ssssssssss",
"sss   sssssssssssssXXo@@@@@@@@@@@@@@@@@@@@@@@@oXXss   ssssssssss",
"sss   sssssssssssssXXo@@@@@@@@@@@@@@@@@@@@@@@@oXXss   ssssssssss",
"             s      XXXXXXXXXXXXXXXXXXXXXXXXXXXX       s        ",
"             s      XXXXXXXXXXXXXXXXXXXXXXXXXXXX       s        ",
"             s                                         s        ",
"             s                                         s        ",
"                                                                ",
"                                                                ",
"                       s                  s                     ",
"                       s                  s                     ",
"sss   sssssssssssss   sssssssssssss   sssssssssssss   ssssssssss",
"sss   sssssssssssss   sssssssssssss   sssssssssssss   ssssssssss",
"sss   sssssssssssss   sssssssssssss   sssssssssssss   ssssssssss",
"sss   sssssssssssss   sssssssssssss   sssssssssssss   ssssssssss",
"            s                                           s       ",
"            s                                           s       ",
"            s                                           s       ",
"            s                                           s       ",
"                                                                ",
"                                                                ",
"                                                                ",
"                                                                ",
"                                                                ",
"                                                                ",
"                                                                ",
"                                                                ",
"                                                                "
};