/* XPM */
static char *_f490a3fea654628bc486e4e88df2736D0Ijdnh9y6JkxNU5[] = {
/* columns rows colors chars-per-pixel */
"64 64 10 1 ",
"  c #755338",
". c black",
"X c #21110D",
"o c #342319",
"O c #503625",
"+ c #755338",
"@ c #D99945",
"# c #E9CE7C",
"$ c #677598",
"s c #503625",
/* pixels */
"            s                                               s   ",
"            s                                               s   ",
"            s                                               s   ",
"            s                                               s   ",
"ssss sss    ssssssssss ss    ssssssssssss ss    ssssssssssss sss",
"ssss sss    ssssssssss ss    ssssssssssss ss    ssssssssssss sss",
"ssss sss    ssssssssss ss    ssssssssssss ss    ssssssssssss sss",
"ssss sss    ssssssssss ss    ssssssssssss ss    ssssssssssss sss",
"                                                                ",
"           $XXXXXXXXXXXXXXXXXXXXXXXXXXXXXXXXXXXXXXXX$           ",
"           $XXXXXXXXXXXXXXXXXXXXXXXXXXXXXXXXXXXXXXXX$           ",
"           X++++++++++++++++++++++++++++++++++++++++X           ",
"           X++++++++++++++++++++++++++++++++++++++++X           ",
"           X++++++++++++++++++++++++++++++++++++++++X           ",
"           X++++++++++++++++++++++++++++++++++++++++X           ",
"           XOooooooooooooooooooooooooooooooooooooooOX           ",
"     s     XOooooooooooooooooooooooooooooooooooooooOX    s      ",
"     s     XOooooooooooooooooooooooooooooooooooooooOX    s      ",
"     s     X+oOOoOOOOoOOo+oOOoOOOOoOOo+oOOoOOOOoOOo+X    s      ",
"     s     X+oOOoOOOOoOOo+oOOoOOOOoOOo+oOOoOOOOoOOo+X    s      ",
"ssss sss   X+oOOoOOOOoOOo+oOOoOOOOoOOo+oOOoOOOOoOOo+Xsssssss sss",
"ssss sss   X+oOOOOOOOoOOo+oOOOOOOOoOOo+oOOOOOOOoOOo+Xsssssss sss",
"ssss sss   X+oOOOOOOOoOOo+oOOOOOOOoOOo+oOOOOOOOoOOo+Xsssssss sss",
"ssss sss   X+oOOOOOOOoOOo+oOOOOOOOoOOo+oOOOOOOOoOOo+Xsssssss sss",
" s         X+oOOOOOOOOOOo+oOOOOOOOOOOo+oOOOOOOOOOOo+X           ",
" s         X+oOOOOOOOOOOo+oOOOOOOOOOOo+oOOOOOOOOOOo+X           ",
" s         X+oOOOOOOOOOOo+oOOOOOOOOOOo+oOOOOOOOOOOo+X           ",
" s         X+oOOOOOOOOOOo+oOOOOOOOOOOo+oOOOOOOOOOOo+X           ",
"           X+oOOOOOOOOOOo+oOOOOOOOOOOo+oOOOOOOOOOOo+X           ",
"           X+oOOOOOOOOOOo+oOOOOOOOOOOo+oOOOOOOOOOOo+X           ",
"           X+oOOOOOOOO#@o+oOOOOOOOO#@o+oOOOOOOOO#@o+X           ",
"           X+oOOOOOOOO#@o+oOOOOOOOO#@o+oOOOOOOOO#@o+X           ",
"           X+oOOOOOOOO#@o+oOOOOOOOO#@o+oOOOOOOOO#@o+X           ",
"           X+oOOOOOOOO@@o+oOOOOOOOO@@o+oOOOOOOOO@@o+X           ",
"           X+oOOOOOOOO@@o+oOOOOOOOO@@o+oOOOOOOOO@@o+X           ",
"           X+oOOOOOOOO@@o+oOOOOOOOO@@o+oOOOOOOOO@@o+X           ",
"sss   sssssX+oOOOOOOOOooo+oOOOOOOOOooo+oOOOOOOOOooo+X ssssssssss",
"sss   sssssX+oOOOOOOOOooo+oOOOOOOOOooo+oOOOOOOOOooo+X ssssssssss",
"sss   sssssX+oOOOOOOOOooo+oOOOOOOOOooo+oOOOOOOOOooo+X ssssssssss",
"sss   sssssX+oOOoOOOOOOOo+oOOoOOOOOOOo+oOOoOOOOOOOo+X ssssssssss",
"           X+oOOoOOOOOOOo+oOOoOOOOOOOo+oOOoOOOOOOOo+X  s        ",
"           X+oOOoOOOOOOOo+oOOoOOOOOOOo+oOOoOOOOOOOo+X  s        ",
"           X+oOOoOOOOOOOo+oOOoOOOOOOOo+oOOoOOOOOOOo+X  s        ",
"           X+oOOoOOOOOOOo+oOOoOOOOOOOo+oOOoOOOOOOOo+X  s        ",
"           X+oOOoOOOOOOOo+oOOoOOOOOOOo+oOOoOOOOOOOo+X           ",
"           X+oOOoOOOOoOOo+oOOoOOOOoOOo+oOOoOOOOoOOo+X           ",
"           X+oOOoOOOOoOOo+oOOoOOOOoOOo+oOOoOOOOoOOo+X           ",
"           X+oOOoOOOOoOOo+oOOoOOOOoOOo+oOOoOOOOoOOo+X           ",
"sss   sssssX.............X.............X............X ssssssssss",
"sss   sssssX.............X.............X............X ssssssssss",
"sss   sssssX.............X.............X............X ssssssssss",
"sss   sssss.            ...           ...           . ssssssssss",
"           .            ...           ...           .   s       ",
"           .            ...           ...           .   s       ",
"            s                                           s       ",
"            s                                           s       ",
"                                                                ",
"                                                                ",
"                                                                ",
"                                                                ",
"                                                                ",
"                                                                ",
"                                                                ",
"                                                                "
};