/* XPM */
static char *_2b6c43ebc2f4f12de3b4e02aabe9f4423dGme0JCbGy371g[] = {
/* columns rows colors chars-per-pixel */
"64 64 11 1 ",
"  c #755338",
". c #0C0E19",
"X c #21110D",
"o c #342319",
"O c #242A3D",
"+ c #503625",
"@ c #755338",
"# c #414B66",
"$ c #677598",
"% c #B6BEC8",
"s c #503625",
/* pixels */
"            s                                               s   ",
"            s                                               s   ",
"            s                                               s   ",
"            s                                               s   ",
"ssss sss    ssssssssss ss    ssssssssssss ss    ssssssssssss sss",
"ssss sss    ssssssssss ss    ssssssssssss ss    ssssssssssss sss",
"ssss sss    ssssssssss ss    ssssssssssss ss    ssssssssssss sss",
"ssss sss    ssssssssss ss    ssssssssssss ss    ssssssssssss sss",
"                                                                ",
"                                                                ",
"                                                                ",
"                                                                ",
"             XXXXXXXXXXXXXXXXXXXXXXXXXXXXXXXXXXXXXXXX           ",
"             XXXXXXXXXXXXXXXXXXXXXXXXXXXXXXXXXXXXXXXX           ",
"             X+$$++++++$$++++++$$++++++$$++++++$$+++X           ",
"     s       X+$$++++++$$++++++$$++++++$$++++++$$+++X    s      ",
"     s       X@%%@@@@@@%%@@@@@@%%@@@@@@%%@@@@@@%%@@@X    s      ",
"     s       X@%%@@@@@@%%@@@@@@%%@@@@@@%%@@@@@@%%@@@X    s      ",
"     s       X@%%@@@@@@%%@@@@@@%%@@@@@@%%@@@@@@%%@@@X    s      ",
"ssss sss    sX@%%@@@@@@%%@@@@@@%%@@@@@@%%@@@@@@%%@@@Xsssssss sss",
"ssss sss    sX@%%@@@@@@%%@@@@@@%%@@@@@@%%@@@@@@%%@@@Xsssssss sss",
"ssss sss    sX@%%@@@@@@%%@@@@@@%%@@@@@@%%@@@@@@%%@@@Xsssssss sss",
"ssss sss    sX@%%@@@@@@%%@@@@@@%%@@@@@@%%@@@@@@%%@@@Xsssssss sss",
" s           X@%%@@@@@@%%@@@@@@%%@@@@@@%%@@@@@@%%@@@X           ",
" s           X@%%@@@@@@%%@@@@@@%%@@@@@@%%@@@@@@%%@@@X           ",
" s           X@%%@@@@@@%%@@@@@@%%@@@@@@%%@@@@@@%%@@@X           ",
" s           X@%%@@@@@@%%@@@@@@%%@@@@@@%%@@@@@@%%@@@X           ",
"             X+$$++++++$$++++++$$++++++$$++++++$$+++X           ",
"             X+$$++++++$$++++++$$++++++$$++++++$$+++X           ",
"             X$$$$%%%%$$$$%%%%$$$$%%%%$$$$%%%%$$$$$$X           ",
"             X$$$$%%%%$$$$%%%%$$$$%%%%$$$$%%%%$$$$$$X           ",
"             Xo##o#OO#o##o#OO#o##o#OO#o##o#OO#o##o##X           ",
"             Xo##o#OO#o##o#OO#o##o#OO#o##o#OO#o##o##X           ",
"             Xo##o#OO#o##o#OO#o##o#OO#o##o#OO#o##o##X           ",
"             Xo##o#OO#o##o#OO#o##o#OO#o##o#OO#o##o##X           ",
"sss   sssssssXo##o#OO#o##o#OO#o##o#OO#o##o#OO#o##o##Xsssssssssss",
"sss   ssssss.Xo$$+$OO$+$$+$OO$+$$+$OO$+$$+$OO$+$$+$$X.ssssssssss",
"sss   ssssss.Xo$$+$OO$+$$+$OO$+$$+$OO$+$$+$OO$+$$+$$X.ssssssssss",
"sss   ssssss.Xo$$+$$$$+$$+$$$$+$$+$$$$+$$+$$$$+$$+$$X.ssssssssss",
"            .Xo$$+$$$$+$$+$$$$+$$+$$$$+$$+$$$$+$$+$$X. s        ",
"            .Xo$$++++++$$++++++$$++++++$$++++++$$+$$X. s        ",
"            .Xo$$++++++$$++++++$$++++++$$++++++$$+$$X. s        ",
"            ..X$$++++++$$++++++$$++++++$$++++++$$$$X.. s        ",
"            ..X$$++++++$$++++++$$++++++$$++++++$$$$X..          ",
"          ..............................................        ",
"          ..............................................        ",
"             ........................................           ",
"sss   sssssss........................................ ssssssssss",
"sss   sssssssssssss   sssssssssssss   sssssssssssss   ssssssssss",
"sss   sssssssssssss   sssssssssssss   sssssssssssss   ssssssssss",
"sss   sssssssssssss   sssssssssssss   sssssssssssss   ssssssssss",
"            s                                           s       ",
"            s                                           s       ",
"            s                                           s       ",
"            s                                           s       ",
"                                                                ",
"                                                                ",
"                                                                ",
"                                                                ",
"                                                                ",
"                                                                ",
"                                                                ",
"                                                                ",
"                                                                "
};